<?xml version="1.0" encoding="UTF-8"?>
<svg id="Laag_2" xmlns="http://www.w3.org/2000/svg" viewBox="0 0 191.04 191.04">
  <defs>
    <style>
      .cls-1 {
        fill: #1e1e1c;
      }
    </style>
  </defs>
  <g id="Laag_1-2">
    <path class="cls-1" d="M186.04,0H0v191.04h191.04V0h-5ZM90.52,180.88c-44.84-2.6-80.52-39.89-80.52-85.36S45.68,12.76,90.52,10.16v170.72ZM100.52,100.52h80.37c-2.5,43.18-37.19,77.85-80.37,80.36v-80.36ZM10,10h43.01c-18.58,9.27-33.73,24.43-43.01,43.01V10ZM10,181.04v-43.01c9.27,18.58,24.43,33.73,43.01,43.01H10ZM181.04,181.04h-43c18.58-9.27,33.73-24.43,43-43v43ZM100.52,90.52V10h80.52v80.52h-80.52Z"/>
  </g>
</svg>