<?xml version="1.0" encoding="utf-8"?>
<!-- Generator: Adobe Illustrator 30.4.0, SVG Export Plug-In . SVG Version: 9.03 Build 0)  -->
<svg version="1.1" id="Laag_2_00000098929514841607572710000007669649494067408314_"
	 xmlns="http://www.w3.org/2000/svg" xmlns:xlink="http://www.w3.org/1999/xlink" x="0px" y="0px" viewBox="0 0 191.04 191.04"
	 style="enable-background:new 0 0 191.04 191.04;" xml:space="preserve">
<style type="text/css">
	.st0{fill:#1E1E1C;}
</style>
<g id="Laag_1-2">
	<path class="st0" d="M172.19,14.62H14.62v161.8h161.8V14.62H172.19z M91.29,167.82c-37.98-2.2-68.2-33.79-68.2-72.3
		s30.22-70.09,68.2-72.3V167.82z M99.75,99.75h68.07c-2.12,36.57-31.5,65.94-68.07,68.06C99.75,167.82,99.75,99.75,99.75,99.75z
		 M23.09,23.09h36.43c-15.74,7.85-28.57,20.69-36.43,36.43V23.09z M23.09,167.95v-36.43c7.85,15.74,20.69,28.57,36.43,36.43H23.09z
		 M167.95,167.95h-36.42c15.74-7.85,28.57-20.69,36.42-36.42V167.95z M99.75,91.29v-68.2h68.2v68.2H99.75z"/>
</g>
</svg>
